{"title":"Jess Glynne - Don't Be So Hard On Yourself (2015.House)","uid":12114015,"size":94743176,"categoryP":"video","categoryS":"music_videos","magnet":"?xt=urn:btih:f96348ec2b373bd8e14f201e4f7c9198c90da1da&amp;dn=Jess+Glynne+-+Don%27t+Be+So+Hard+On+Yourself+%282015.House%29&amp;tr=udp%3A%2F%2Ftracker.openbittorrent.com%3A80&amp;tr=udp%3A%2F%2Fopen.demonii.com%3A1337&amp;tr=udp%3A%2F%2Ftracker.coppersurfer.tk%3A6969&amp;tr=udp%3A%2F%2Fexodus.desync.com%3A6969","seeders":0,"leechers":0,"uploader":"MeRaDil","files":1,"time":1436642075,"description":"JESS GLYNNE - DON'T BE SO HARD ON YOURSELF\n\n\nPROMO MPEG4 Music Vid\n &lt;a href=&quot;\nhttp://gifyu.com/images/JessGlynne-1.png&quot; rel=&quot;nofollow&quot; target=&quot;_NEW&quot;&gt;\nhttp://gifyu.com/images/JessGlynne-1.png&lt;/a&gt;\n &lt;a href=&quot;\nhttp://gifyu.com/images/JessGlynne-2.png&quot; rel=&quot;nofollow&quot; target=&quot;_NEW&quot;&gt;\nhttp://gifyu.com/images/JessGlynne-2.png&lt;/a&gt;\n\nGeneral\nJess Glynne - Don't Be So Hard On Yourself\nFormat                                   : Promo MPEG-4\nFormat profile                           : Base Media\nCodec ID                                 : isom\nFile size                                : 90.4 MiB\nDuration                                 : 4mn 10s\nOverall bit rate                         : 3 024 Kbps\nMusicVid name                            : Don't Be So Hard On Yourself\nAlbum                                    : I Cry When I Laugh\nPerformer                                : Jess Glynne\nGenre                                    : House\nContentType                              : Music Video\nRecorded date                            : 2015\nCopyright                                : Jess Glynne\nCover                                    : Yes\nRating                                   : ***\nMake                                     : MeRaDil\nArtist url                               : http://www.jessglynne.co.uk\nRelease                                  : UK . july 9 . 2015\nPart_ID                                  : Don't Be So Hard On Yourself\n\nVideo\nID                                       : 1\nFormat                                   : AVC\nFormat/Info                              : Advanced Video Codec\nFormat profile                           : &lt;a class=&quot;__cf_email__&quot; href=&quot;/cdn-cgi/l/email-protection&quot; data-cfemail=&quot;3179585659717d051f01&quot;&gt;[email&amp;#160;protected]&lt;/a&gt;&lt;script data-cfhash='f9e31' type=&quot;text/javascript&quot;&gt;\n/* &lt;![CDATA[ */!function(){try{var t=&quot;currentScript&quot;in document?document.currentScript:function(){for(var t=document.getElementsByTagName(&quot;script&quot;),e=t.length;e--;)if(t[e].getAttribute(&quot;data-cfhash&quot;))return t[e]}();if(t&amp;&amp;t.previousSibling){var e,r,n,i,c=t.previousSibling,a=c.getAttribute(&quot;data-cfemail&quot;);if(a){for(e=&quot;&quot;,r=parseInt(a.substr(0,2),16),n=2;a.length-n;n+=2)i=parseInt(a.substr(n,2),16)^r,e+=String.fromCharCode(i);e=document.createTextNode(e),c.parentNode.replaceChild(e,c)}t.parentNode.removeChild(t);}}catch(u){}}()/* ]]&gt; */&lt;/script&gt;\nFormat settings, CABAC                   : Yes\nFormat settings, ReFrames                : 2 frames\nCodec ID                                 : avc1\nCodec ID/Info                            : Advanced Video Coding\nDuration                                 : 4mn 10s\nBit rate                                 : 2 761 Kbps\nWidth                                    : 1 920 pixels\nHeight                                   : 1 080 pixels\nDisplay aspect ratio                     : 16:9\nFrame rate mode                          : Constant\nFrame rate                               : 25.000 fps\nColor space                              : YUV\nChroma subsampling                       : 4:2:0\nBit depth                                : 8 bits\nScan type                                : Progressive\nBits/(Pixel*Frame)                       : 0.053\nStream size                              : 82.5 MiB (91%)\n\nAudio\nID                                       : 2\nFormat                                   : AAC\nFormat/Info                              : Advanced Audio Codec\nFormat profile                           : LC\nCodec ID                                 : 40\nDuration                                 : 4mn 10s\nBit rate mode                            : Constant\nBit rate                                 : 256 Kbps\nChannel(s)                               : 2 channels\nChannel positions                        : Front: L R\nSampling rate                            : 44.1 KHz\nCompression mode                         : Lossy\nStream size                              : 7.65 MiB (8%)\n\nJess Glynne * I Cry When I Laugh * House * Promo\n &lt;a href=&quot;\nhttps://thepiratebay.se/user/MeRaDil&quot; rel=&quot;nofollow&quot; target=&quot;_NEW&quot;&gt;\nhttps://thepiratebay.se/user/MeRaDil&lt;/a&gt;","torrent":{"xt":"urn:btih:f96348ec2b373bd8e14f201e4f7c9198c90da1da","amp;dn":"Jess+Glynne+-+Don%27t+Be+So+Hard+On+Yourself+%282015.House%29","amp;tr":["udp%3A%2F%2Ftracker.openbittorrent.com%3A80","udp%3A%2F%2Fopen.demonii.com%3A1337","udp%3A%2F%2Ftracker.coppersurfer.tk%3A6969","udp%3A%2F%2Fexodus.desync.com%3A6969"],"infoHash":"f96348ec2b373bd8e14f201e4f7c9198c90da1da","infoHashBuffer":{"type":"Buffer","data":[249,99,72,236,43,55,59,216,225,79,32,30,79,124,145,152,201,13,161,218]},"announce":[],"urlList":[]}}